<?xml version="1.0" encoding="utf-8"?>
<!-- Generator: Adobe Illustrator 27.3.1, SVG Export Plug-In . SVG Version: 6.00 Build 0)  -->
<svg version="1.1" id="Layer_2_00000178174780187090256720000008170386132580798894_"
	 xmlns="http://www.w3.org/2000/svg" xmlns:xlink="http://www.w3.org/1999/xlink" x="0px" y="0px" viewBox="0 0 368 87.8"
	 style="enable-background:new 0 0 368 87.8;" xml:space="preserve">
<style type="text/css">
	.st0{enable-background:new    ;}
	.st1{fill:#231F20;}
	.st2{fill:#305D7F;}
</style>
<g id="Layer_1-2">
	<g class="st0">
		<path class="st1" d="M6.5,50.7V35.7H1.3v-9.1l6-0.4l1.4-11.9h10.1v11.9h9.2v9.5h-9.2v14.9c0,4.4,2,6,4.9,6c1.3,0,2.6-0.2,3.6-0.6
			l1.9,8.5c-2,0.8-5,1.6-8.9,1.6C10.5,66.1,6.5,59.9,6.5,50.7z"/>
		<path class="st1" d="M34.6,14.4c0-3.8,2.8-6.2,6.8-6.2s6.8,2.4,6.8,6.2c0,3.8-2.8,6.3-6.8,6.3S34.6,18.2,34.6,14.4z M35.4,26.2
			h12.1v39H35.4V26.2z"/>
	</g>
	<g class="st0">
		<path class="st2" d="M50.7,33.5c0-4.2,3.1-7.5,7.2-7.5s7.3,3.3,7.3,7.5c0,4.2-3.1,7.5-7.3,7.5S50.7,37.7,50.7,33.5z M50.7,58.6
			c0-4.2,3.1-7.5,7.2-7.5s7.3,3.3,7.3,7.5c0,4.2-3.1,7.5-7.3,7.5S50.7,62.8,50.7,58.6z"/>
	</g>
	<g class="st0">
		<path class="st1" d="M70.4,26.2h9.9l0.9,4.9h0.3c3.1-3.1,6.6-5.8,11.8-5.8c5.4,0,8.8,2.3,10.8,6.4c3.4-3.5,7-6.4,12.2-6.4
			c8.5,0,12.3,6,12.3,15.8v24.2h-12.1V42.6c0-5.4-1.5-7.1-4.6-7.1c-1.9,0-3.9,1.2-6.3,3.5v26.2H93.3V42.6c0-5.4-1.4-7.1-4.6-7.1
			c-1.8,0-3.9,1.2-6.3,3.5v26.2H70.4V26.2z"/>
		<path class="st1" d="M135.8,45.6c0-12.6,9.1-20.4,18.5-20.4c11.3,0,16.8,8.2,16.8,18.8c0,2.2-0.2,4.2-0.5,5.3h-23
			c1.1,5.3,4.8,7.5,9.7,7.5c2.8,0,5.7-0.9,8.4-2.4l3.9,7.3c-4.1,2.9-9.4,4.4-14.1,4.4C144.5,66.1,135.8,58.7,135.8,45.6z
			 M160.7,41.2c0-3.8-1.7-6.8-6.1-6.8c-3.5,0-6.4,2.2-7.1,6.8H160.7z"/>
	</g>
	<g class="st0">
		<path class="st2" d="M174.3,33.5c0-4.2,3.1-7.5,7.2-7.5s7.3,3.3,7.3,7.5c0,4.2-3.1,7.5-7.3,7.5S174.3,37.7,174.3,33.5z
			 M174.3,58.6c0-4.2,3.1-7.5,7.2-7.5s7.3,3.3,7.3,7.5c0,4.2-3.1,7.5-7.3,7.5S174.3,62.8,174.3,58.6z"/>
	</g>
	<g class="st0">
		<path class="st1" d="M191.8,45.6c0-13,9.7-20.4,20.5-20.4c4.8,0,8.5,1.7,11.4,4.2l-5.7,7.5c-1.8-1.3-3.3-1.9-5-1.9
			c-5.4,0-8.8,4.2-8.8,10.7c0,6.5,3.6,10.7,8.4,10.7c2.6,0,4.8-0.9,6.8-2.4l4.7,7.6c-3.8,3.5-8.7,4.6-12.9,4.6
			C200.2,66.1,191.8,58.6,191.8,45.6z"/>
	</g>
	<g class="st0">
		<path class="st1" d="M226,45.6c0-13,9.2-20.4,19.1-20.4c10,0,19.2,7.5,19.2,20.4s-9.2,20.5-19.2,20.5
			C235.2,66.1,226,58.6,226,45.6z M251.8,45.6c0-6.4-2.1-10.7-6.7-10.7s-6.7,4.2-6.7,10.7c0,6.5,2.1,10.7,6.7,10.7
			S251.8,52.2,251.8,45.6z"/>
	</g>
	<g class="st0">
		<path class="st2" d="M270.6,33.5c0-4.2,3.1-7.5,7.2-7.5s7.3,3.3,7.3,7.5c0,4.2-3.1,7.5-7.3,7.5S270.6,37.7,270.6,33.5z
			 M270.6,58.6c0-4.2,3.1-7.5,7.2-7.5s7.3,3.3,7.3,7.5c0,4.2-3.1,7.5-7.3,7.5S270.6,62.8,270.6,58.6z"/>
	</g>
	<g class="st0">
		<path class="st1" d="M288.4,45.6c0-12.7,8-20.4,16.1-20.4c4.3,0,6.9,1.6,9.4,4l-0.4-5.8V10.3h12.2v54.9h-10l-0.9-3.8h-0.2
			c-2.8,2.8-6.6,4.7-10.3,4.7C294.7,66.1,288.4,58.4,288.4,45.6z M313.5,52.9V37.4c-1.9-1.7-4.2-2.3-6.1-2.3
			c-3.5,0-6.5,3.1-6.5,10.5c0,7.5,2.5,10.6,6.7,10.6C309.9,56.2,311.7,55.4,313.5,52.9z"/>
		<path class="st1" d="M333.3,45.6c0-12.6,9.1-20.4,18.5-20.4c11.3,0,16.8,8.2,16.8,18.8c0,2.2-0.2,4.2-0.5,5.3h-23
			c1.1,5.3,4.8,7.5,9.7,7.5c2.8,0,5.7-0.9,8.4-2.4l3.9,7.3c-4.1,2.9-9.4,4.4-14.1,4.4C342,66.1,333.3,58.7,333.3,45.6z M358.2,41.2
			c0-3.8-1.7-6.8-6.1-6.8c-3.5,0-6.4,2.2-7.1,6.8H358.2z"/>
	</g>
</g>
</svg>
